<svg id="visual" viewBox="0 0 900 600" width="900" height="600" xmlns="http://www.w3.org/2000/svg" xmlns:xlink="http://www.w3.org/1999/xlink" version="1.1"><path d="M0 464L21.5 459.7C43 455.3 86 446.7 128.8 440.8C171.7 435 214.3 432 257.2 426.3C300 420.7 343 412.3 385.8 418.5C428.7 424.7 471.3 445.3 514.2 451.2C557 457 600 448 642.8 441C685.7 434 728.3 429 771.2 425.2C814 421.3 857 418.7 878.5 417.3L900 416L900 601L878.5 601C857 601 814 601 771.2 601C728.3 601 685.7 601 642.8 601C600 601 557 601 514.2 601C471.3 601 428.7 601 385.8 601C343 601 300 601 257.2 601C214.3 601 171.7 601 128.8 601C86 601 43 601 21.5 601L0 601Z" fill="#7a6f6e"></path><path d="M0 458L21.5 465.3C43 472.7 86 487.3 128.8 490C171.7 492.7 214.3 483.3 257.2 483.3C300 483.3 343 492.7 385.8 497.3C428.7 502 471.3 502 514.2 498.2C557 494.3 600 486.7 642.8 485.2C685.7 483.7 728.3 488.3 771.2 483.3C814 478.3 857 463.7 878.5 456.3L900 449L900 601L878.5 601C857 601 814 601 771.2 601C728.3 601 685.7 601 642.8 601C600 601 557 601 514.2 601C471.3 601 428.7 601 385.8 601C343 601 300 601 257.2 601C214.3 601 171.7 601 128.8 601C86 601 43 601 21.5 601L0 601Z" fill="#706466"></path><path d="M0 484L21.5 483.5C43 483 86 482 128.8 482.2C171.7 482.3 214.3 483.7 257.2 484.7C300 485.7 343 486.3 385.8 485.5C428.7 484.7 471.3 482.3 514.2 481C557 479.7 600 479.3 642.8 478C685.7 476.7 728.3 474.3 771.2 474.7C814 475 857 478 878.5 479.5L900 481L900 601L878.5 601C857 601 814 601 771.2 601C728.3 601 685.7 601 642.8 601C600 601 557 601 514.2 601C471.3 601 428.7 601 385.8 601C343 601 300 601 257.2 601C214.3 601 171.7 601 128.8 601C86 601 43 601 21.5 601L0 601Z" fill="#64595f"></path><path d="M0 519L21.5 521.2C43 523.3 86 527.7 128.8 531.3C171.7 535 214.3 538 257.2 534.2C300 530.3 343 519.7 385.8 519.8C428.7 520 471.3 531 514.2 537.2C557 543.3 600 544.7 642.8 543.2C685.7 541.7 728.3 537.3 771.2 537C814 536.7 857 540.3 878.5 542.2L900 544L900 601L878.5 601C857 601 814 601 771.2 601C728.3 601 685.7 601 642.8 601C600 601 557 601 514.2 601C471.3 601 428.7 601 385.8 601C343 601 300 601 257.2 601C214.3 601 171.7 601 128.8 601C86 601 43 601 21.5 601L0 601Z" fill="#564f59"></path><path d="M0 578L21.5 574.8C43 571.7 86 565.3 128.8 560.5C171.7 555.7 214.3 552.3 257.2 555C300 557.7 343 566.3 385.8 568.8C428.7 571.3 471.3 567.7 514.2 566.7C557 565.7 600 567.3 642.8 569.3C685.7 571.3 728.3 573.7 771.2 570.8C814 568 857 560 878.5 556L900 552L900 601L878.5 601C857 601 814 601 771.2 601C728.3 601 685.7 601 642.8 601C600 601 557 601 514.2 601C471.3 601 428.7 601 385.8 601C343 601 300 601 257.2 601C214.3 601 171.7 601 128.8 601C86 601 43 601 21.5 601L0 601Z" fill="#474652"></path></svg>