<svg id="visual" viewBox="0 0 900 600" width="900" height="600" xmlns="http://www.w3.org/2000/svg" xmlns:xlink="http://www.w3.org/1999/xlink" version="1.1"><rect x="0" y="0" width="900" height="600" fill="#002233"></rect><path d="M0 556L8.8 552.3C17.7 548.7 35.3 541.3 53 539.5C70.7 537.7 88.3 541.3 106 539.7C123.7 538 141.3 531 159 528.3C176.7 525.7 194.3 527.3 212 528.2C229.7 529 247.3 529 265 527.8C282.7 526.7 300.3 524.3 318 527.5C335.7 530.7 353.3 539.3 371 539.5C388.7 539.7 406.3 531.3 423.8 529.5C441.3 527.7 458.7 532.3 476.2 536.7C493.7 541 511.3 545 529 544.2C546.7 543.3 564.3 537.7 582 537.5C599.7 537.3 617.3 542.7 635 544.7C652.7 546.7 670.3 545.3 688 546.7C705.7 548 723.3 552 741 549.3C758.7 546.7 776.3 537.3 794 535.3C811.7 533.3 829.3 538.7 847 539.5C864.7 540.3 882.3 536.7 891.2 534.8L900 533L900 601L891.2 601C882.3 601 864.7 601 847 601C829.3 601 811.7 601 794 601C776.3 601 758.7 601 741 601C723.3 601 705.7 601 688 601C670.3 601 652.7 601 635 601C617.3 601 599.7 601 582 601C564.3 601 546.7 601 529 601C511.3 601 493.7 601 476.2 601C458.7 601 441.3 601 423.8 601C406.3 601 388.7 601 371 601C353.3 601 335.7 601 318 601C300.3 601 282.7 601 265 601C247.3 601 229.7 601 212 601C194.3 601 176.7 601 159 601C141.3 601 123.7 601 106 601C88.3 601 70.7 601 53 601C35.3 601 17.7 601 8.8 601L0 601Z" fill="#474652" stroke-linecap="round" stroke-linejoin="miter"></path></svg>