<?xml version="1.0" standalone="no"?><svg xmlns="http://www.w3.org/2000/svg" viewBox="0 0 1440 320"><path fill="#474652" fill-opacity="1" d="M0,160L30,149.3C60,139,120,117,180,101.3C240,85,300,75,360,106.7C420,139,480,213,540,229.3C600,245,660,203,720,181.3C780,160,840,160,900,176C960,192,1020,224,1080,197.3C1140,171,1200,85,1260,48C1320,11,1380,21,1410,26.7L1440,32L1440,320L1410,320C1380,320,1320,320,1260,320C1200,320,1140,320,1080,320C1020,320,960,320,900,320C840,320,780,320,720,320C660,320,600,320,540,320C480,320,420,320,360,320C300,320,240,320,180,320C120,320,60,320,30,320L0,320Z"></path></svg>