<svg id="visual" viewBox="0 0 900 600" width="900" height="600" xmlns="http://www.w3.org/2000/svg" xmlns:xlink="http://www.w3.org/1999/xlink" version="1.1"><path d="M0 476L8.8 478.8C17.7 481.7 35.3 487.3 53 481.8C70.7 476.3 88.3 459.7 106 457.7C123.7 455.7 141.3 468.3 159 475.5C176.7 482.7 194.3 484.3 212 479.2C229.7 474 247.3 462 265 462C282.7 462 300.3 474 318 478C335.7 482 353.3 478 371 473.3C388.7 468.7 406.3 463.3 423.8 465.5C441.3 467.7 458.7 477.3 476.2 483C493.7 488.7 511.3 490.3 529 485.7C546.7 481 564.3 470 582 462.2C599.7 454.3 617.3 449.7 635 453.5C652.7 457.3 670.3 469.7 688 472.8C705.7 476 723.3 470 741 472.7C758.7 475.3 776.3 486.7 794 491.3C811.7 496 829.3 494 847 491C864.7 488 882.3 484 891.2 482L900 480L900 601L891.2 601C882.3 601 864.7 601 847 601C829.3 601 811.7 601 794 601C776.3 601 758.7 601 741 601C723.3 601 705.7 601 688 601C670.3 601 652.7 601 635 601C617.3 601 599.7 601 582 601C564.3 601 546.7 601 529 601C511.3 601 493.7 601 476.2 601C458.7 601 441.3 601 423.8 601C406.3 601 388.7 601 371 601C353.3 601 335.7 601 318 601C300.3 601 282.7 601 265 601C247.3 601 229.7 601 212 601C194.3 601 176.7 601 159 601C141.3 601 123.7 601 106 601C88.3 601 70.7 601 53 601C35.3 601 17.7 601 8.8 601L0 601Z" fill="#3e3d3a"></path><path d="M0 505L8.8 503.5C17.7 502 35.3 499 53 491.7C70.7 484.3 88.3 472.7 106 471.8C123.7 471 141.3 481 159 486.8C176.7 492.7 194.3 494.3 212 493.7C229.7 493 247.3 490 265 485C282.7 480 300.3 473 318 471.7C335.7 470.3 353.3 474.7 371 479.7C388.7 484.7 406.3 490.3 423.8 490.7C441.3 491 458.7 486 476.2 485.7C493.7 485.3 511.3 489.7 529 488.7C546.7 487.7 564.3 481.3 582 475.8C599.7 470.3 617.3 465.7 635 469.5C652.7 473.3 670.3 485.7 688 492.3C705.7 499 723.3 500 741 501.2C758.7 502.3 776.3 503.7 794 502.2C811.7 500.7 829.3 496.3 847 490C864.7 483.7 882.3 475.3 891.2 471.2L900 467L900 601L891.2 601C882.3 601 864.7 601 847 601C829.3 601 811.7 601 794 601C776.3 601 758.7 601 741 601C723.3 601 705.7 601 688 601C670.3 601 652.7 601 635 601C617.3 601 599.7 601 582 601C564.3 601 546.7 601 529 601C511.3 601 493.7 601 476.2 601C458.7 601 441.3 601 423.8 601C406.3 601 388.7 601 371 601C353.3 601 335.7 601 318 601C300.3 601 282.7 601 265 601C247.3 601 229.7 601 212 601C194.3 601 176.7 601 159 601C141.3 601 123.7 601 106 601C88.3 601 70.7 601 53 601C35.3 601 17.7 601 8.8 601L0 601Z" fill="#42403d"></path><path d="M0 500L8.8 497.3C17.7 494.7 35.3 489.3 53 490.5C70.7 491.7 88.3 499.3 106 501.3C123.7 503.3 141.3 499.7 159 496.5C176.7 493.3 194.3 490.7 212 489.8C229.7 489 247.3 490 265 491.2C282.7 492.3 300.3 493.7 318 498C335.7 502.3 353.3 509.7 371 507.7C388.7 505.7 406.3 494.3 423.8 491.2C441.3 488 458.7 493 476.2 492C493.7 491 511.3 484 529 481.5C546.7 479 564.3 481 582 488.2C599.7 495.3 617.3 507.7 635 508.8C652.7 510 670.3 500 688 494.7C705.7 489.3 723.3 488.7 741 486.7C758.7 484.7 776.3 481.3 794 480.2C811.7 479 829.3 480 847 483C864.7 486 882.3 491 891.2 493.5L900 496L900 601L891.2 601C882.3 601 864.7 601 847 601C829.3 601 811.7 601 794 601C776.3 601 758.7 601 741 601C723.3 601 705.7 601 688 601C670.3 601 652.7 601 635 601C617.3 601 599.7 601 582 601C564.3 601 546.7 601 529 601C511.3 601 493.7 601 476.2 601C458.7 601 441.3 601 423.8 601C406.3 601 388.7 601 371 601C353.3 601 335.7 601 318 601C300.3 601 282.7 601 265 601C247.3 601 229.7 601 212 601C194.3 601 176.7 601 159 601C141.3 601 123.7 601 106 601C88.3 601 70.7 601 53 601C35.3 601 17.7 601 8.8 601L0 601Z" fill="#464340"></path><path d="M0 523L8.8 516.8C17.7 510.7 35.3 498.3 53 493C70.7 487.7 88.3 489.3 106 495C123.7 500.7 141.3 510.3 159 515.7C176.7 521 194.3 522 212 520.3C229.7 518.7 247.3 514.3 265 512.8C282.7 511.3 300.3 512.7 318 510.2C335.7 507.7 353.3 501.3 371 500.7C388.7 500 406.3 505 423.8 502.7C441.3 500.3 458.7 490.7 476.2 488.8C493.7 487 511.3 493 529 496.5C546.7 500 564.3 501 582 504.7C599.7 508.3 617.3 514.7 635 517.2C652.7 519.7 670.3 518.3 688 518.8C705.7 519.3 723.3 521.7 741 517C758.7 512.3 776.3 500.7 794 495.3C811.7 490 829.3 491 847 497.3C864.7 503.7 882.3 515.3 891.2 521.2L900 527L900 601L891.2 601C882.3 601 864.7 601 847 601C829.3 601 811.7 601 794 601C776.3 601 758.7 601 741 601C723.3 601 705.7 601 688 601C670.3 601 652.7 601 635 601C617.3 601 599.7 601 582 601C564.3 601 546.7 601 529 601C511.3 601 493.7 601 476.2 601C458.7 601 441.3 601 423.8 601C406.3 601 388.7 601 371 601C353.3 601 335.7 601 318 601C300.3 601 282.7 601 265 601C247.3 601 229.7 601 212 601C194.3 601 176.7 601 159 601C141.3 601 123.7 601 106 601C88.3 601 70.7 601 53 601C35.3 601 17.7 601 8.8 601L0 601Z" fill="#4a4644"></path><path d="M0 535L8.8 535.7C17.7 536.3 35.3 537.7 53 536.8C70.7 536 88.3 533 106 532.2C123.7 531.3 141.3 532.7 159 527.3C176.7 522 194.3 510 212 506.7C229.7 503.3 247.3 508.7 265 513C282.7 517.3 300.3 520.7 318 520.8C335.7 521 353.3 518 371 519.2C388.7 520.3 406.3 525.7 423.8 524.2C441.3 522.7 458.7 514.3 476.2 512.3C493.7 510.3 511.3 514.7 529 513.2C546.7 511.7 564.3 504.3 582 502C599.7 499.7 617.3 502.3 635 509.3C652.7 516.3 670.3 527.7 688 527.2C705.7 526.7 723.3 514.3 741 511.2C758.7 508 776.3 514 794 520.2C811.7 526.3 829.3 532.7 847 530C864.7 527.3 882.3 515.7 891.2 509.8L900 504L900 601L891.2 601C882.3 601 864.7 601 847 601C829.3 601 811.7 601 794 601C776.3 601 758.7 601 741 601C723.3 601 705.7 601 688 601C670.3 601 652.7 601 635 601C617.3 601 599.7 601 582 601C564.3 601 546.7 601 529 601C511.3 601 493.7 601 476.2 601C458.7 601 441.3 601 423.8 601C406.3 601 388.7 601 371 601C353.3 601 335.7 601 318 601C300.3 601 282.7 601 265 601C247.3 601 229.7 601 212 601C194.3 601 176.7 601 159 601C141.3 601 123.7 601 106 601C88.3 601 70.7 601 53 601C35.3 601 17.7 601 8.8 601L0 601Z" fill="#4d4947"></path><path d="M0 521L8.8 518.8C17.7 516.7 35.3 512.3 53 516.7C70.7 521 88.3 534 106 534.2C123.7 534.3 141.3 521.7 159 517.8C176.7 514 194.3 519 212 522.3C229.7 525.7 247.3 527.3 265 526.3C282.7 525.3 300.3 521.7 318 518.3C335.7 515 353.3 512 371 514.2C388.7 516.3 406.3 523.7 423.8 529.5C441.3 535.3 458.7 539.7 476.2 538.8C493.7 538 511.3 532 529 532.7C546.7 533.3 564.3 540.7 582 544C599.7 547.3 617.3 546.7 635 541C652.7 535.3 670.3 524.7 688 522.5C705.7 520.3 723.3 526.7 741 531.7C758.7 536.7 776.3 540.3 794 540.8C811.7 541.3 829.3 538.7 847 534.7C864.7 530.7 882.3 525.3 891.2 522.7L900 520L900 601L891.2 601C882.3 601 864.7 601 847 601C829.3 601 811.7 601 794 601C776.3 601 758.7 601 741 601C723.3 601 705.7 601 688 601C670.3 601 652.7 601 635 601C617.3 601 599.7 601 582 601C564.3 601 546.7 601 529 601C511.3 601 493.7 601 476.2 601C458.7 601 441.3 601 423.8 601C406.3 601 388.7 601 371 601C353.3 601 335.7 601 318 601C300.3 601 282.7 601 265 601C247.3 601 229.7 601 212 601C194.3 601 176.7 601 159 601C141.3 601 123.7 601 106 601C88.3 601 70.7 601 53 601C35.3 601 17.7 601 8.8 601L0 601Z" fill="#514c4b"></path><path d="M0 548L8.8 543.7C17.7 539.3 35.3 530.7 53 529.8C70.7 529 88.3 536 106 536C123.7 536 141.3 529 159 525.3C176.7 521.7 194.3 521.3 212 527.2C229.7 533 247.3 545 265 548.3C282.7 551.7 300.3 546.3 318 545.8C335.7 545.3 353.3 549.7 371 547C388.7 544.3 406.3 534.7 423.8 534.8C441.3 535 458.7 545 476.2 545.3C493.7 545.7 511.3 536.3 529 534.2C546.7 532 564.3 537 582 538.3C599.7 539.7 617.3 537.3 635 538C652.7 538.7 670.3 542.3 688 546C705.7 549.7 723.3 553.3 741 550.2C758.7 547 776.3 537 794 536C811.7 535 829.3 543 847 543.7C864.7 544.3 882.3 537.7 891.2 534.3L900 531L900 601L891.2 601C882.3 601 864.7 601 847 601C829.3 601 811.7 601 794 601C776.3 601 758.7 601 741 601C723.3 601 705.7 601 688 601C670.3 601 652.7 601 635 601C617.3 601 599.7 601 582 601C564.3 601 546.7 601 529 601C511.3 601 493.7 601 476.2 601C458.7 601 441.3 601 423.8 601C406.3 601 388.7 601 371 601C353.3 601 335.7 601 318 601C300.3 601 282.7 601 265 601C247.3 601 229.7 601 212 601C194.3 601 176.7 601 159 601C141.3 601 123.7 601 106 601C88.3 601 70.7 601 53 601C35.3 601 17.7 601 8.8 601L0 601Z" fill="#544f4f"></path><path d="M0 539L8.8 540.7C17.7 542.3 35.3 545.7 53 547.2C70.7 548.7 88.3 548.3 106 547C123.7 545.7 141.3 543.3 159 546.3C176.7 549.3 194.3 557.7 212 557.3C229.7 557 247.3 548 265 546C282.7 544 300.3 549 318 549.8C335.7 550.7 353.3 547.3 371 545.5C388.7 543.7 406.3 543.3 423.8 545.2C441.3 547 458.7 551 476.2 550.7C493.7 550.3 511.3 545.7 529 544.3C546.7 543 564.3 545 582 548.8C599.7 552.7 617.3 558.3 635 560.7C652.7 563 670.3 562 688 557.2C705.7 552.3 723.3 543.7 741 540.2C758.7 536.7 776.3 538.3 794 542C811.7 545.7 829.3 551.3 847 551.7C864.7 552 882.3 547 891.2 544.5L900 542L900 601L891.2 601C882.3 601 864.7 601 847 601C829.3 601 811.7 601 794 601C776.3 601 758.7 601 741 601C723.3 601 705.7 601 688 601C670.3 601 652.7 601 635 601C617.3 601 599.7 601 582 601C564.3 601 546.7 601 529 601C511.3 601 493.7 601 476.2 601C458.7 601 441.3 601 423.8 601C406.3 601 388.7 601 371 601C353.3 601 335.7 601 318 601C300.3 601 282.7 601 265 601C247.3 601 229.7 601 212 601C194.3 601 176.7 601 159 601C141.3 601 123.7 601 106 601C88.3 601 70.7 601 53 601C35.3 601 17.7 601 8.8 601L0 601Z" fill="#585252"></path><path d="M0 568L8.8 566.3C17.7 564.7 35.3 561.3 53 558.8C70.7 556.3 88.3 554.7 106 556.7C123.7 558.7 141.3 564.3 159 567.7C176.7 571 194.3 572 212 569.5C229.7 567 247.3 561 265 559.8C282.7 558.7 300.3 562.3 318 562C335.7 561.7 353.3 557.3 371 556.2C388.7 555 406.3 557 423.8 559C441.3 561 458.7 563 476.2 565.7C493.7 568.3 511.3 571.7 529 573.2C546.7 574.7 564.3 574.3 582 572.5C599.7 570.7 617.3 567.3 635 566C652.7 564.7 670.3 565.3 688 566.7C705.7 568 723.3 570 741 571C758.7 572 776.3 572 794 568.5C811.7 565 829.3 558 847 555.3C864.7 552.7 882.3 554.3 891.2 555.2L900 556L900 601L891.2 601C882.3 601 864.7 601 847 601C829.3 601 811.7 601 794 601C776.3 601 758.7 601 741 601C723.3 601 705.7 601 688 601C670.3 601 652.7 601 635 601C617.3 601 599.7 601 582 601C564.3 601 546.7 601 529 601C511.3 601 493.7 601 476.2 601C458.7 601 441.3 601 423.8 601C406.3 601 388.7 601 371 601C353.3 601 335.7 601 318 601C300.3 601 282.7 601 265 601C247.3 601 229.7 601 212 601C194.3 601 176.7 601 159 601C141.3 601 123.7 601 106 601C88.3 601 70.7 601 53 601C35.3 601 17.7 601 8.8 601L0 601Z" fill="#5b5556"></path><path d="M0 565L8.8 567.8C17.7 570.7 35.3 576.3 53 578.7C70.7 581 88.3 580 106 578C123.7 576 141.3 573 159 571.5C176.7 570 194.3 570 212 569.8C229.7 569.7 247.3 569.3 265 570.5C282.7 571.7 300.3 574.3 318 574.3C335.7 574.3 353.3 571.7 371 570C388.7 568.3 406.3 567.7 423.8 569.8C441.3 572 458.7 577 476.2 577.7C493.7 578.3 511.3 574.7 529 574.7C546.7 574.7 564.3 578.3 582 578.2C599.7 578 617.3 574 635 571.2C652.7 568.3 670.3 566.7 688 568.7C705.7 570.7 723.3 576.3 741 577C758.7 577.7 776.3 573.3 794 570.8C811.7 568.3 829.3 567.7 847 566.8C864.7 566 882.3 565 891.2 564.5L900 564L900 601L891.2 601C882.3 601 864.7 601 847 601C829.3 601 811.7 601 794 601C776.3 601 758.7 601 741 601C723.3 601 705.7 601 688 601C670.3 601 652.7 601 635 601C617.3 601 599.7 601 582 601C564.3 601 546.7 601 529 601C511.3 601 493.7 601 476.2 601C458.7 601 441.3 601 423.8 601C406.3 601 388.7 601 371 601C353.3 601 335.7 601 318 601C300.3 601 282.7 601 265 601C247.3 601 229.7 601 212 601C194.3 601 176.7 601 159 601C141.3 601 123.7 601 106 601C88.3 601 70.7 601 53 601C35.3 601 17.7 601 8.8 601L0 601Z" fill="#5e595a"></path><path d="M0 583L8.8 583C17.7 583 35.3 583 53 582.2C70.7 581.3 88.3 579.7 106 578.8C123.7 578 141.3 578 159 578.2C176.7 578.3 194.3 578.7 212 579.2C229.7 579.7 247.3 580.3 265 579.8C282.7 579.3 300.3 577.7 318 577.8C335.7 578 353.3 580 371 581.3C388.7 582.7 406.3 583.3 423.8 583.8C441.3 584.3 458.7 584.7 476.2 584C493.7 583.3 511.3 581.7 529 581.3C546.7 581 564.3 582 582 583.3C599.7 584.7 617.3 586.3 635 585.8C652.7 585.3 670.3 582.7 688 583C705.7 583.3 723.3 586.7 741 588.2C758.7 589.7 776.3 589.3 794 587.8C811.7 586.3 829.3 583.7 847 582.2C864.7 580.7 882.3 580.3 891.2 580.2L900 580L900 601L891.2 601C882.3 601 864.7 601 847 601C829.3 601 811.7 601 794 601C776.3 601 758.7 601 741 601C723.3 601 705.7 601 688 601C670.3 601 652.7 601 635 601C617.3 601 599.7 601 582 601C564.3 601 546.7 601 529 601C511.3 601 493.7 601 476.2 601C458.7 601 441.3 601 423.8 601C406.3 601 388.7 601 371 601C353.3 601 335.7 601 318 601C300.3 601 282.7 601 265 601C247.3 601 229.7 601 212 601C194.3 601 176.7 601 159 601C141.3 601 123.7 601 106 601C88.3 601 70.7 601 53 601C35.3 601 17.7 601 8.8 601L0 601Z" fill="#615c5e"></path></svg>